<svg xmlns="http://www.w3.org/2000/svg" width="139" height="20" viewBox="0 0 139 20">
<path d="M0 10L10 0H46V20H10L0 10Z" fill="#4285F4"/>  
<path d="M46 0H139V20H46Z" fill="#3871CF"/>  
<g transform="translate(21, 3) scale(0.5833333)">
<path fill="#FFFFFF" d="M12.19 5.102c-2.962 0-5.478 1.94-6.334 4.622H5.77a5.46 5.46 0 0 0-4.81 2.866 5.493 5.493 0 0 0 .554 5.861 5.46 5.46 0 0 0 4.35 2.147h11.878a4.953 4.953 0 0 0 3.655-1.523 4.986 4.986 0 0 0 1.443-3.686 4.986 4.986 0 0 0-1.596-3.606 4.953 4.953 0 0 0-3.594-1.34 6.387 6.387 0 0 0-5.456-5.341z"/>
</g>
<text x="92" y="13" text-anchor="middle" fill="#FFFFFF" font-family="Verdana,Arial,sans-serif" font-size="10" font-weight="600">googlecloud</text>
</svg>