<svg xmlns="http://www.w3.org/2000/svg" width="80" height="20" viewBox="0 0 80 20">
<rect width="80" height="20" fill="#22C55E" rx="0"/>
<rect x="36" width="44" height="20" fill="#1DA750" rx="0"/>
<rect x="80" width="0" height="20" fill="#1DA750" rx="0"/>
<g transform="translate(11, 3) scale(0.5833333)">
<path fill="#FFFFFF" d="M23.99 14.365c-.015.327-.323.604-.943.855l-4.012 1.61-5.287 2.243c-.152.066-.36.066-.532.006l-9.55-3.798c-.62-.248-.9-.533-.9-.79V17.1c0 .254.28.54.9.79l9.55 3.797c.171.06.38.06.532-.006l5.287-2.243 4.012-1.61c.62-.25.928-.527.943-.855v-2.608zm0-4.312c-.015.328-.323.605-.943.856l-4.012 1.61-5.287 2.243c-.152.067-.36.067-.532.006l-9.55-3.797c-.62-.248-.9-.534-.9-.79v2.608c0 .254.28.54.9.79l9.55 3.796c.171.06.38.06.532-.006l5.287-2.243 4.012-1.61c.62-.25.928-.527.943-.855V10.053zM.775 8.653l9.55 3.797c.171.06.38.06.532-.006l5.287-2.243 4.012-1.61c1.243-.5 1.183-.962.018-1.388l-9.344-3.36c-.28-.106-.596-.1-.88.007L1.04 7.11C-.264 7.558-.214 8.008.774 8.653z"/>
</g>
<text x="58" y="13" text-anchor="middle" fill="#000000" font-family="Verdana,Arial,sans-serif" font-size="10" font-weight="600">v7.2</text>
</svg>