<svg xmlns="http://www.w3.org/2000/svg" width="82" height="20" viewBox="0 0 82 20">
<path d="M0 0H36V20H0Z" fill="#2088FF"/>  
<path d="M36 0H72L82 10L72 20H36Z" fill="#1B74D9"/>  
<g transform="translate(11, 3) scale(0.5833333)">
<path fill="#FFFFFF" d="M10.984 13.836a.5.5 0 0 1-.353-.146l-.745-.743a.5.5 0 1 1 .706-.708l.392.391 1.181-1.18a.5.5 0 0 1 .708.707l-1.535 1.533a.498.498 0 0 1-.354.146zm9.353-.147l1.534-1.532a.5.5 0 0 0-.707-.707l-1.181 1.18-.392-.391a.5.5 0 1 0-.706.708l.746.743a.497.497 0 0 0 .706-.001zM4.527 7.452l2.557-1.585A1 1 0 0 0 7.09 4.17L4.533 2.56A1 1 0 0 0 3 3.406v3.196a1 1 0 0 0 1.527.85zm16.946 8.193l-2.557 1.585a1 1 0 0 0 .006 1.697l2.557 1.61A1 1 0 0 0 23 19.691v-3.196a1 1 0 0 0-1.527-.85z"/>
</g>
<text x="54" y="13" text-anchor="middle" fill="#FFFFFF" font-family="Verdana,Arial,sans-serif" font-size="10" font-weight="600">CI</text>
</svg>