<svg xmlns="http://www.w3.org/2000/svg" width="73" height="20" viewBox="0 0 73 20">
<rect width="73" height="20" fill="#326CE5" rx="0"/>
<rect x="36" width="37" height="20" fill="#2B5CC3" rx="0"/>
<rect x="73" width="0" height="20" fill="#2B5CC3" rx="0"/>
<g transform="translate(11, 3) scale(0.5833333)">
<path fill="#FFFFFF" d="M10.204 14.35l.007.01-.999 2.413a5.171 5.171 0 01-2.075-2.597l2.578-.437.004.005a.44.44 0 01.485.606zm-.833-2.129a.44.44 0 00.173-.756l.002-.011L7.585 9.7a5.143 5.143 0 00-.73 3.255l2.514-.725.002-.009zm1.145-1.98a.44.44 0 00.699-.337l.01-.005.15-2.62a5.144 5.144 0 00-3.01 1.442l2.147 1.523.004-.002zm.76 2.75l.723.349.722-.347.18-.78-.5-.623h-.804l-.5.623.179.778zm1.5-2.095a.44.44 0 00.7.336l.008.003 2.134-1.513a5.188 5.188 0 00-2.992-1.442l.148 2.615.002.001zm10.876 5.97l-5.773 7.181a1.6 1.6 0 01-1.248.594H9.261a1.6 1.6 0 01-1.247-.594l-5.773-7.181a1.583 1.583 0 01-.307-1.34L3.823 5.79a1.6 1.6 0 01.947-1.152l7.286-3.05a1.6 1.6 0 011.24 0l7.286 3.05a1.6 1.6 0 01.947 1.151l1.889 10.238c.08.453-.02.921-.307 1.341zm-3.289-6.46a6.066 6.066 0 00-1.321-1.794l-.023-.022a6.074 6.074 0 00-9.382 7.623l.007.01a6.073 6.073 0 004.442 2.834l.01.001a6.08 6.08 0 002.509-.156l.008-.002a6.063 6.063 0 003.757-4.77l.001-.005a6.066 6.066 0 00-.008-3.72zm-3.672 4.89l.002.005a.44.44 0 01-.486.605l-.005.005-2.575-.436a5.198 5.198 0 002.072 2.59l.988-2.418a.441.441 0 01.005-.35zm1.266-1.142l-.003-.006a.44.44 0 01.174.756l.002.003-1.96 1.746a5.17 5.17 0 00.728-3.263l2.514.724.002-.004-.004.004a.44.44 0 01.547.04z"/>
</g>
<text x="54" y="13" text-anchor="middle" fill="#FFFFFF" font-family="Verdana,Arial,sans-serif" font-size="10" font-weight="600">K8s</text>
</svg>