<svg xmlns="http://www.w3.org/2000/svg" width="136" height="20" viewBox="0 0 136 20">
<path d="M8 0H128Q136 0 136 8V12Q136 20 128 20H8Q0 20 0 12V8Q0 0 8 0Z" fill="#70FFAF" stroke="#F59E0B" stroke-width="2"/>
<path d="M36 0H128Q136 0 136 8V12Q136 20 128 20H36L36 20V0L36 0Z" fill="#5FD995"/>
  <path d="M128 0H132Q136 0 136 4V16Q136 20 132 20H128L128 20V0L128 0Z" fill="#5FD995"/>
<g transform="translate(11, 3) scale(0.5833333)">
<path fill="#000000" d="M1.105 18.02A11.9 11.9 0 0 1 0 12.985q0-.698.078-1.376a12 12 0 0 1 .231-1.34A12 12 0 0 1 4.025 4.02a12 12 0 0 1 5.46-2.771 12 12 0 0 1 3.428-.23c1.452.112 2.825.477 4.077 1.05a12 12 0 0 1 2.78 1.774 12.02 12.02 0 0 1 4.053 7.078A12 12 0 0 1 24 12.985q0 .454-.036.914a12 12 0 0 1-.728 3.305 12 12 0 0 1-2.38 3.875c-1.33 1.357-3.02 1.962-4.43 1.936a4.4 4.4 0 0 1-2.724-1.024c-.99-.853-1.391-1.83-1.53-2.919a5 5 0 0 1 .128-1.518c.105-.38.37-1.116.76-1.437-.455-.197-1.04-.624-1.226-.829-.045-.05-.04-.13 0-.183a.155.155 0 0 1 .177-.053c.392.134.869.267 1.372.35.66.111 1.484.25 2.317.292 2.03.1 4.153-.813 4.812-2.627s.403-3.609-1.96-4.685-3.454-2.356-5.363-3.128c-1.247-.505-2.636-.205-4.06.582-3.838 2.121-7.277 8.822-5.69 15.032a.191.191 0 0 1-.315.19 12 12 0 0 1-1.25-1.634 12 12 0 0 1-.769-1.404M11.57 6.087c.649-.051 1.214.501 1.31 1.236.13.979-.228 1.99-1.41 2.013-1.01.02-1.315-.997-1.248-1.614.066-.616.574-1.575 1.35-1.635"/>
</g>
<text x="86" y="13" text-anchor="middle" fill="#000000" font-family="Verdana,Arial,sans-serif" font-size="10" font-weight="600">Experimental</text>
</svg>