<svg xmlns="http://www.w3.org/2000/svg" width="87" height="20" viewBox="0 0 87 20">
<rect width="87" height="20" fill="#292A2D" rx="0"/>
<rect x="36" width="51" height="20" fill="#232426" rx="0"/>
<rect x="87" width="0" height="20" fill="#232426" rx="0"/>
<g transform="translate(11, 3) scale(0.5833333)">
<path fill="#FFFFFF" d="M17.193 9.555c-1.264-5.58-4.252-7.414-4.573-8.115-.28-.394-.53-.954-.735-1.44-.036.495-.055.685-.523 1.184-.723.566-4.438 3.682-4.74 10.02-.282 5.912 4.27 9.435 4.888 9.884l.07.05A73.49 73.49 0 0111.91 24h.481c.114-1.032.284-2.056.51-3.07.417-.296.604-.463.85-.693a11.342 11.342 0 003.639-8.464c.01-.814-.103-1.662-.197-2.218zm-5.336 8.195s0-8.291.275-8.29c.213 0 .49 10.695.49 10.695-.381-.045-.765-1.76-.765-2.405z"/>
</g>
<text x="61" y="13" text-anchor="middle" fill="white" font-family="Verdana,Arial,sans-serif" font-size="10" font-weight="600">NoSQL</text>
</svg>