<svg xmlns="http://www.w3.org/2000/svg" width="129" height="20" viewBox="0 0 129 20">
<rect width="129" height="20" fill="none" stroke="#06B6D4" stroke-width="2" rx="0"/>
<line x1="36" y1="0" x2="36" y2="20" stroke="#06B6D4" stroke-width="2"/>
<g transform="translate(10, 2) scale(0.6666667)">
<path fill="#06B6D4" d="M12.001,4.8c-3.2,0-5.2,1.6-6,4.8c1.2-1.6,2.6-2.2,4.2-1.8c0.913,0.228,1.565,0.89,2.288,1.624 C13.666,10.618,15.027,12,18.001,12c3.2,0,5.2-1.6,6-4.8c-1.2,1.6-2.6,2.2-4.2,1.8c-0.913-0.228-1.565-0.89-2.288-1.624 C16.337,6.182,14.976,4.8,12.001,4.8z M6.001,12c-3.2,0-5.2,1.6-6,4.8c1.2-1.6,2.6-2.2,4.2-1.8c0.913,0.228,1.565,0.89,2.288,1.624 c1.177,1.194,2.538,2.576,5.512,2.576c3.2,0,5.2-1.6,6-4.8c-1.2,1.6-2.6,2.2-4.2,1.8c-0.913-0.228-1.565-0.89-2.288-1.624 C10.337,13.382,8.976,12,6.001,12z"/>
</g>
<text x="82" y="13" text-anchor="middle" fill="#06B6D4" font-family="Verdana,Arial,sans-serif" font-size="10" font-weight="600">tailwindcss</text>
</svg>