<svg xmlns="http://www.w3.org/2000/svg" width="168" height="32" viewBox="0 0 168 32">
  <defs>
    <clipPath id="clip-0"><rect x="0" y="0" width="32" height="32"/></clipPath>
    <clipPath id="clip-1"><rect x="34" y="0" width="32" height="32"/></clipPath>
    <clipPath id="clip-2"><rect x="68" y="0" width="32" height="32"/></clipPath>
    <clipPath id="clip-3"><rect x="102" y="0" width="32" height="32"/></clipPath>
    <clipPath id="clip-4"><rect x="136" y="0" width="32" height="32"/></clipPath>
    <clipPath id="partial-0"><rect x="0" y="0" width="32" height="32"/></clipPath>
    <clipPath id="partial-1"><rect x="34" y="0" width="32" height="32"/></clipPath>
    <clipPath id="partial-2"><rect x="68" y="0" width="32" height="32"/></clipPath>
    <clipPath id="partial-3"><rect x="102" y="0" width="32" height="32"/></clipPath>
    <clipPath id="partial-4"><rect x="136" y="0" width="16" height="32"/></clipPath>
  </defs>

  <path d="M12 17.27L18.18 21l-1.64-7.03L22 9.24l-7.19-.61L12 2 9.19 8.63 2 9.24l5.46 4.73L5.82 21z" fill="#6B7280" transform="translate(0, 0) scale(1.3333334)"/>
  <g clip-path="url(#partial-0)"><path d="M12 17.27L18.18 21l-1.64-7.03L22 9.24l-7.19-.61L12 2 9.19 8.63 2 9.24l5.46 4.73L5.82 21z" fill="#EAB308" transform="translate(0, 0) scale(1.3333334)"/></g>
  <path d="M12 17.27L18.18 21l-1.64-7.03L22 9.24l-7.19-.61L12 2 9.19 8.63 2 9.24l5.46 4.73L5.82 21z" fill="#6B7280" transform="translate(34, 0) scale(1.3333334)"/>
  <g clip-path="url(#partial-1)"><path d="M12 17.27L18.18 21l-1.64-7.03L22 9.24l-7.19-.61L12 2 9.19 8.63 2 9.24l5.46 4.73L5.82 21z" fill="#EAB308" transform="translate(34, 0) scale(1.3333334)"/></g>
  <path d="M12 17.27L18.18 21l-1.64-7.03L22 9.24l-7.19-.61L12 2 9.19 8.63 2 9.24l5.46 4.73L5.82 21z" fill="#6B7280" transform="translate(68, 0) scale(1.3333334)"/>
  <g clip-path="url(#partial-2)"><path d="M12 17.27L18.18 21l-1.64-7.03L22 9.24l-7.19-.61L12 2 9.19 8.63 2 9.24l5.46 4.73L5.82 21z" fill="#EAB308" transform="translate(68, 0) scale(1.3333334)"/></g>
  <path d="M12 17.27L18.18 21l-1.64-7.03L22 9.24l-7.19-.61L12 2 9.19 8.63 2 9.24l5.46 4.73L5.82 21z" fill="#6B7280" transform="translate(102, 0) scale(1.3333334)"/>
  <g clip-path="url(#partial-3)"><path d="M12 17.27L18.18 21l-1.64-7.03L22 9.24l-7.19-.61L12 2 9.19 8.63 2 9.24l5.46 4.73L5.82 21z" fill="#EAB308" transform="translate(102, 0) scale(1.3333334)"/></g>
  <path d="M12 17.27L18.18 21l-1.64-7.03L22 9.24l-7.19-.61L12 2 9.19 8.63 2 9.24l5.46 4.73L5.82 21z" fill="#6B7280" transform="translate(136, 0) scale(1.3333334)"/>
  <g clip-path="url(#partial-4)"><path d="M12 17.27L18.18 21l-1.64-7.03L22 9.24l-7.19-.61L12 2 9.19 8.63 2 9.24l5.46 4.73L5.82 21z" fill="#EAB308" transform="translate(136, 0) scale(1.3333334)"/></g></svg>