<svg xmlns="http://www.w3.org/2000/svg" width="108" height="20" viewBox="0 0 108 20">
  <defs>
    <clipPath id="clip-0"><rect x="0" y="0" width="20" height="20"/></clipPath>
    <clipPath id="clip-1"><rect x="22" y="0" width="20" height="20"/></clipPath>
    <clipPath id="clip-2"><rect x="44" y="0" width="20" height="20"/></clipPath>
    <clipPath id="clip-3"><rect x="66" y="0" width="20" height="20"/></clipPath>
    <clipPath id="clip-4"><rect x="88" y="0" width="20" height="20"/></clipPath>
    <clipPath id="partial-0"><rect x="0" y="0" width="20" height="20"/></clipPath>
    <clipPath id="partial-1"><rect x="22" y="0" width="20" height="20"/></clipPath>
    <clipPath id="partial-2"><rect x="44" y="0" width="10" height="20"/></clipPath>
  </defs>

  <path d="M12 21.35l-1.45-1.32C5.4 15.36 2 12.28 2 8.5 2 5.42 4.42 3 7.5 3c1.74 0 3.41.81 4.5 2.09C13.09 3.81 14.76 3 16.5 3 19.58 3 22 5.42 22 8.5c0 3.78-3.4 6.86-8.55 11.54L12 21.35z" fill="#6B7280" transform="translate(0, 0) scale(0.8333333)"/>
  <g clip-path="url(#partial-0)"><path d="M12 21.35l-1.45-1.32C5.4 15.36 2 12.28 2 8.5 2 5.42 4.42 3 7.5 3c1.74 0 3.41.81 4.5 2.09C13.09 3.81 14.76 3 16.5 3 19.58 3 22 5.42 22 8.5c0 3.78-3.4 6.86-8.55 11.54L12 21.35z" fill="#EF4444" transform="translate(0, 0) scale(0.8333333)"/></g>
  <path d="M12 21.35l-1.45-1.32C5.4 15.36 2 12.28 2 8.5 2 5.42 4.42 3 7.5 3c1.74 0 3.41.81 4.5 2.09C13.09 3.81 14.76 3 16.5 3 19.58 3 22 5.42 22 8.5c0 3.78-3.4 6.86-8.55 11.54L12 21.35z" fill="#6B7280" transform="translate(22, 0) scale(0.8333333)"/>
  <g clip-path="url(#partial-1)"><path d="M12 21.35l-1.45-1.32C5.4 15.36 2 12.28 2 8.5 2 5.42 4.42 3 7.5 3c1.74 0 3.41.81 4.5 2.09C13.09 3.81 14.76 3 16.5 3 19.58 3 22 5.42 22 8.5c0 3.78-3.4 6.86-8.55 11.54L12 21.35z" fill="#EF4444" transform="translate(22, 0) scale(0.8333333)"/></g>
  <path d="M12 21.35l-1.45-1.32C5.4 15.36 2 12.28 2 8.5 2 5.42 4.42 3 7.5 3c1.74 0 3.41.81 4.5 2.09C13.09 3.81 14.76 3 16.5 3 19.58 3 22 5.42 22 8.5c0 3.78-3.4 6.86-8.55 11.54L12 21.35z" fill="#6B7280" transform="translate(44, 0) scale(0.8333333)"/>
  <g clip-path="url(#partial-2)"><path d="M12 21.35l-1.45-1.32C5.4 15.36 2 12.28 2 8.5 2 5.42 4.42 3 7.5 3c1.74 0 3.41.81 4.5 2.09C13.09 3.81 14.76 3 16.5 3 19.58 3 22 5.42 22 8.5c0 3.78-3.4 6.86-8.55 11.54L12 21.35z" fill="#EF4444" transform="translate(44, 0) scale(0.8333333)"/></g>
  <path d="M12 21.35l-1.45-1.32C5.4 15.36 2 12.28 2 8.5 2 5.42 4.42 3 7.5 3c1.74 0 3.41.81 4.5 2.09C13.09 3.81 14.76 3 16.5 3 19.58 3 22 5.42 22 8.5c0 3.78-3.4 6.86-8.55 11.54L12 21.35z" fill="#6B7280" transform="translate(66, 0) scale(0.8333333)"/>
  <path d="M12 21.35l-1.45-1.32C5.4 15.36 2 12.28 2 8.5 2 5.42 4.42 3 7.5 3c1.74 0 3.41.81 4.5 2.09C13.09 3.81 14.76 3 16.5 3 19.58 3 22 5.42 22 8.5c0 3.78-3.4 6.86-8.55 11.54L12 21.35z" fill="#6B7280" transform="translate(88, 0) scale(0.8333333)"/></svg>