<svg xmlns="http://www.w3.org/2000/svg" width="100" height="24" viewBox="0 0 100 24">
  <polygon points="3.0,21.0 13.4,15.6 23.9,19.2 34.3,10.2 44.8,17.4 55.2,8.4 65.7,13.8 76.1,4.8 86.6,12.0 97.0,3.0 97.0,21.0 3.0,21.0" fill="#3B82F6" fill-opacity="0.3"/>
  <polyline points="3.0,21.0 13.4,15.6 23.9,19.2 34.3,10.2 44.8,17.4 55.2,8.4 65.7,13.8 76.1,4.8 86.6,12.0 97.0,3.0" fill="none" stroke="#00FFFF" stroke-width="2"/>
  <circle cx="3.0" cy="21.0" r="2" fill="#3B82F6"/>
  <circle cx="13.4" cy="15.6" r="2" fill="#3B82F6"/>
  <circle cx="23.9" cy="19.2" r="2" fill="#3B82F6"/>
  <circle cx="34.3" cy="10.2" r="2" fill="#3B82F6"/>
  <circle cx="44.8" cy="17.4" r="2" fill="#3B82F6"/>
  <circle cx="55.2" cy="8.4" r="2" fill="#3B82F6"/>
  <circle cx="65.7" cy="13.8" r="2" fill="#3B82F6"/>
  <circle cx="76.1" cy="4.8" r="2" fill="#3B82F6"/>
  <circle cx="86.6" cy="12.0" r="2" fill="#3B82F6"/>
  <circle cx="97.0" cy="3.0" r="2" fill="#3B82F6"/>
</svg>