<svg xmlns="http://www.w3.org/2000/svg" viewBox="0 0 71 20" width="71" height="20"><path d="M-10 10L0 0H36L46 10L36 20H0L-10 10Z" fill="#0D0D0D"/><path d="M26 10L36 0H71L81 10L71 20H36L26 10Z" fill="#1a1a1a"/><g transform="translate(11, 3) scale(0.5833333)"><path d="M24 1.61h-9.94L12 5.16 9.94 1.61H0l12 20.78ZM12 14.08 5.16 2.23h4.43L12 6.41l2.41-4.18h4.43Z" fill="#FFFFFF"/></g><text x="53" y="13" font-family="Verdana,Arial,sans-serif" font-size="10" fill="#FFFFFF" font-weight="600" text-anchor="middle">Vue</text><path d="M-9.5 10L0.5 0.5H70.5L80.5 10L70.5 19.5H0.5L-9.5 10Z" fill="none" stroke="#4FC08D" stroke-width="1"/></svg>