<svg xmlns="http://www.w3.org/2000/svg" viewBox="0 0 97 20" width="97" height="20"><path d="M0 0H36L36 0V20L36 20H0L0 20V0L0 0Z" fill="#FF00E5"/><path d="M36 0H97L97 0V20L97 20H36L36 20V0L36 0Z" fill="#00FF87"/><g transform="translate(11, 3) scale(0.5833333)"><path d="M17.193 9.555c-1.264-5.58-4.252-7.414-4.573-8.115-.28-.394-.53-.954-.735-1.44-.036.495-.055.685-.523 1.184-.723.566-4.438 3.682-4.74 10.02-.282 5.912 4.27 9.435 4.888 9.884l.07.05A73.49 73.49 0 0111.91 24h.481c.114-1.032.284-2.056.51-3.07.417-.296.604-.463.85-.693a11.342 11.342 0 003.639-8.464c.01-.814-.103-1.662-.197-2.218zm-5.336 8.195s0-8.291.275-8.29c.213 0 .49 10.695.49 10.695-.381-.045-.765-1.76-.765-2.405z" fill="#000000"/></g><text x="66" y="13" font-family="Verdana,Arial,sans-serif" font-size="10" fill="#000000" font-weight="600" text-anchor="middle">MongoDB</text></svg>