<svg xmlns="http://www.w3.org/2000/svg" viewBox="0 0 91 20" width="91" height="20"><path d="M4 1H87Q90 1 90 4V16Q90 19 87 19H4Q1 19 1 16V4Q1 1 4 1Z" fill="none" stroke="#FC6D26" stroke-width="2"/><line x1="36" y1="1" x2="36" y2="19" stroke="#FC6D26" stroke-width="2"/><g transform="translate(11, 3) scale(0.5833333)"><path d="M23.546 10.93L13.067.452a1.55 1.55 0 00-2.134 0L.453 10.93a1.55 1.55 0 000 2.134l10.48 10.48a1.55 1.55 0 002.134 0l10.48-10.48a1.55 1.55 0 000-2.134zM12 20.813L8.187 12H4.5l7.5 8.813zM4.5 12L12 3.187 8.187 12H4.5zm15 0h-3.687L12 3.187 19.5 12zM12 20.813L15.813 12H19.5L12 20.813z" fill="#000000"/></g><text x="63" y="13" font-family="Verdana,Arial,sans-serif" font-size="10" fill="#CCCCCC" font-weight="600" text-anchor="middle">Gitlab</text></svg>