<svg xmlns="http://www.w3.org/2000/svg" viewBox="0 0 117 20" width="117" height="20"><path d="M0 0H36L36 0V20L36 20H0L0 20V0L0 0Z" fill="#00FF87"/><path d="M36 0H117L117 0V20L117 20H36L36 20V0L36 0Z" fill="#60EFFF"/><g transform="translate(11, 3) scale(0.5833333)"><path d="M23.5594 14.7228a.5269.5269 0 00-.0563-.1191c-.139-.2632-.4768-.3418-1.0074-.2321-1.6533.3411-2.2935.1312-2.5256-.0191 1.342-2.0482 2.445-4.522 3.0411-6.8297.2714-1.0507.7982-3.5237.1222-4.7316a1.5641 1.5641 0 00-.1509-.235C21.6931.9086 19.8007.0248 17.5099.0005c-1.4947-.0158-2.7705.3461-3.1161.4648a9.051 9.051 0 00-.5765-.0317c-1.0029-.0431-1.9445.1126-2.8251.4631-.2448-.0939-.5765-.2159-.9734-.3296-1.8291-.5239-3.4082-.4902-4.6979.1007C3.5592 1.6096 2.2784 3.5592 1.945 6.2046c-.1952 1.5523-.0775 4.0851.4236 6.733.5765 3.0484 1.4196 5.0393 2.5025 5.9151 1.0455.8462 2.4379.3122 3.2461-.5758.4877.2855 1.0999.4525 1.8377.5026.2656.018.5765.0227.8951-.0091.0295.1269.0612.2511.0952.3726.0792.2826.1854.6313.3067.9951-.7956.1075-1.4347.2965-1.9274.5621-1.0777.5813-1.5665 1.4341-1.4196 2.476.1956 1.3879 1.5032 2.149 2.5554 2.149.1733 0 .347-.0182.5765-.0567 2.144-.3602 3.6073-1.4932 4.2584-3.0648.1711-.4128.2862-.8787.3616-1.3884l.1469.0431c1.1515.3418 2.2368.5167 3.2641.5167.7778 0 1.5143-.0975 2.2004-.2914 1.7298-.4891 2.8352-1.4623 3.1087-2.7386.1556-.7257.0197-1.4259-.3875-1.9946zM2.8438 6.4245c.2879-2.3114 1.3588-4.0166 2.8561-4.5469.8527-.3019 2.1494-.3 3.6567.3115.1357.0553.2714.1133.4071.1726a9.1 9.1 0 00-.4188.1421 7.0593 7.0593 0 00-.1606.0591 9.8581 9.8581 0 00-.1469.057l-.0227.0091a14.6912 14.6912 0 00-.1807.0749c-2.4311 1.0395-3.9873 3.5238-4.5095 7.1909-.0726.5091-.1221 1.0293-.1484 1.5535-.2255-.8295-.409-1.7088-.5454-2.5969-.4345-2.8273-.4345-5.0143-.2869-6.3189zm7.053 8.0467c-.0454.1251-.1448.2454-.2646.32l-.3429.247a.3429.3429 0 00-.1352.2105l-.0454.2089c-.0236.1083-.0931.1967-.1923.2441-.0582.0278-.1215.0421-.1858.0421-.1352 0-.2557-.0699-.3225-.1873l-.2-.3532a.3434.3434 0 00-.2118-.1569l-.349-.1067a.3429.3429 0 01-.2009-.1733l-.0227-.0408-.1106-.2198c-.0635-.1251-.0658-.2725-.0068-.3999.059-.1274.1693-.2225.3019-.2612l.3352-.0975a.343.343 0 00.214-.1689l.1579-.3152a.3428.3428 0 01.2891-.1856l.0159-.0014.0272-.0023h.0363a.3442.3442 0 01.2992.1833l.1601.3107c.0499.0971.1393.169.2459.198l.3407.0931a.3434.3434 0 01.2077.4891l-.1352.2738a.3447.3447 0 00-.0318.2441l.0409.2089a.3424.3424 0 01-.0749.2907l-.181.217a.3398.3398 0 01-.2623.1237h-.0068c-.0931 0-.181-.0385-.2459-.1067zm3.2539-8.561c.0749-.4616.1828-.8949.3248-1.2961.1529-.4321.3498-.8363.5855-1.203.1874-.2908.4071-.5606.6528-.8009.0795-.078.1606-.1524.2436-.2237a6.0793 6.0793 0 012.2899-1.3254c.1448-.0499.2896-.0952.4367-.1366-.6291 1.0008-.8488 2.7098-.1357 4.9714.6755 2.1404 1.8518 4.4296 2.7727 6.0038a.4667.4667 0 01-.1156.6019c-.8601.621-3.7802-.4616-5.0574-1.0599l-.3566-.1594-.1492-.068c-1.0908-.5033-1.8746-1.0598-2.1403-1.9411-.2686-.8897.0363-2.0642.6488-4.5029zm4.5141 12.7989c-.5174 1.2172-1.6192 2.0402-3.2095 2.3978-.0476.0102-.0953.0189-.1429.0261-.2805.0431-.5515-.0022-.7707-.1238-.2373-.1316-.4108-.3519-.4839-.6154a1.2236 1.2236 0 01.1161-.8636 3.8605 3.8605 0 011.0981-1.26c.2664-.2215.5765-.4344.9189-.6427a15.8285 15.8285 0 011.5369-.8079c.0249.1419.0476.2852.0681.43.1084.7674.035 1.4918-.1311 2.4595zm6.4064-3.1279c-.1448.6767-.8465 1.2761-1.9787 1.6897-.9712.3547-2.2004.5091-3.5495.4453-.1207-.0057-.2391-.0136-.3566-.0227.0863-.498.1402-1.0212.1539-1.5535.1902-2.5516-.4617-3.8577-1.8973-5.6984-.068-.0872-.1429-.1879-.2214-.2914l-.0113-.015c.1175-.0045.2351.0008.352.0136.3816.0499 1.2815.2323 2.1517.6995a5.8604 5.8604 0 011.7548 1.403c1.1379 1.3513 1.7594 2.8635 1.6024 3.5299z" fill="#FFFFFF"/></g><text x="76" y="13" font-family="Verdana,Arial,sans-serif" font-size="10" fill="#000000" font-weight="600" text-anchor="middle">PostgreSQL</text></svg>