<svg xmlns="http://www.w3.org/2000/svg" viewBox="0 0 84 20" width="84" height="20"><path d="M4 1H80Q83 1 83 4V16Q83 19 80 19H4Q1 19 1 16V4Q1 1 4 1Z" fill="none" stroke="#FF4438" stroke-width="2"/><line x1="36" y1="1" x2="36" y2="19" stroke="#FF4438" stroke-width="2"/><g transform="translate(11, 3) scale(0.5833333)"><path d="M23.99 14.365c-.015.327-.323.604-.943.855l-4.012 1.61-5.287 2.243c-.152.066-.36.066-.532.006l-9.55-3.798c-.62-.248-.9-.533-.9-.79V17.1c0 .254.28.54.9.79l9.55 3.797c.171.06.38.06.532-.006l5.287-2.243 4.012-1.61c.62-.25.928-.527.943-.855v-2.608zm0-4.312c-.015.328-.323.605-.943.856l-4.012 1.61-5.287 2.243c-.152.067-.36.067-.532.006l-9.55-3.797c-.62-.248-.9-.534-.9-.79v2.608c0 .254.28.54.9.79l9.55 3.796c.171.06.38.06.532-.006l5.287-2.243 4.012-1.61c.62-.25.928-.527.943-.855V10.053zM.775 8.653l9.55 3.797c.171.06.38.06.532-.006l5.287-2.243 4.012-1.61c1.243-.5 1.183-.962.018-1.388l-9.344-3.36c-.28-.106-.596-.1-.88.007L1.04 7.11C-.264 7.558-.214 8.008.774 8.653z" fill="#FFFFFF"/></g><text x="60" y="13" font-family="Verdana,Arial,sans-serif" font-size="10" fill="#FF4438" font-weight="600" text-anchor="middle">Redis</text></svg>