<svg xmlns="http://www.w3.org/2000/svg" viewBox="0 0 110 20" width="110" height="20"><path d="M0 0H36L36 0V20L36 20H0L0 20V0L0 0Z" fill="#080808"/><path d="M36 0H110L110 0V20L110 20H36L36 20V0L36 0Z" fill="#0f0f0f"/><g transform="translate(11, 3) scale(0.5833333)"><path d="M14.7362 8.33269V16.0044L21.4727 12.1219V4.45923L14.7362 8.33269ZM7.26367 4.45923V12.1219L14 16.0044V8.33269L7.26367 4.45923ZM0 0.585938V8.24862L6.73633 12.1221V4.45923L0 0.585938ZM14.7362 17.4559V25.1277L21.4727 21.2361V13.5734L14.7362 17.4559Z" fill="#FFFFFF"/></g><text x="73" y="13" font-family="Verdana,Arial,sans-serif" font-size="10" fill="#FFFFFF" font-weight="600" text-anchor="middle">Terraform</text><path d="M0.5 0.5H109.5L109.5 0.5V19.5L109.5 19.5H0.5L0.5 19.5V0.5L0.5 0.5Z" fill="none" stroke="#333333" stroke-width="1"/></svg>