<svg xmlns="http://www.w3.org/2000/svg" viewBox="0 0 91 20" width="91" height="20"><path d="M0 0H36L36 0V20L36 20H0L0 20V0L0 0Z" fill="#05FFA1"/><path d="M36 0H91L91 0V20L91 20H36L36 20V0L36 0Z" fill="#B967FF"/><g transform="translate(11, 3) scale(0.5833333)"><path d="M21.533 4.809c-2.479-3.506-7.478-4.392-11.138-1.98L4.266 7.012c-1.656 1.093-2.724 2.85-2.9 4.778a5.596 5.596 0 00.959 3.694 5.343 5.343 0 00-1.108 2.223 5.723 5.723 0 001.108 4.882c2.485 3.506 7.484 4.392 11.144 1.98l6.129-4.183c1.656-1.093 2.724-2.85 2.9-4.778a5.596 5.596 0 00-.959-3.694 5.343 5.343 0 001.108-2.223 5.73 5.73 0 00-1.114-4.882zm-10.43 16.017c-2.205.59-4.555-.337-5.671-2.226a3.385 3.385 0 01-.491-2.153 3.072 3.072 0 01.103-.576l.135-.463.417.313c.747.564 1.591.99 2.49 1.258l.237.072-.022.236a1.022 1.022 0 00.202.664c.345.489.968.676 1.516.458a.964.964 0 00.303-.181l6.129-4.183a.946.946 0 00.403-.666.97.97 0 00-.197-.75 1.09 1.09 0 00-1.516-.458.964.964 0 00-.303.181l-2.342 1.591a3.217 3.217 0 01-1.02.609 3.67 3.67 0 01-4.15-1.538 3.385 3.385 0 01-.491-2.153 3.211 3.211 0 011.349-2.247l6.129-4.183a3.217 3.217 0 011.02-.609 3.67 3.67 0 014.15 1.538c.431.61.614 1.357.515 2.093a3.072 3.072 0 01-.103.576l-.135.463-.417-.313a6.976 6.976 0 00-2.49-1.258l-.237-.072.022-.236c.019-.227-.046-.453-.197-.664a1.09 1.09 0 00-1.516-.458.964.964 0 00-.303.181L8.05 12.025a.946.946 0 00-.403.666.97.97 0 00.197.75 1.09 1.09 0 001.516.458.964.964 0 00.303-.181l2.342-1.591a3.217 3.217 0 011.02-.609 3.67 3.67 0 014.15 1.538c.431.61.614 1.357.515 2.093a3.211 3.211 0 01-1.349 2.247l-6.129 4.183a3.217 3.217 0 01-1.02.609c-.21.078-.426.135-.645.169z" fill="#FFFFFF"/></g><text x="63" y="13" font-family="Verdana,Arial,sans-serif" font-size="10" fill="#000000" font-weight="600" text-anchor="middle">Svelte</text></svg>