<svg xmlns="http://www.w3.org/2000/svg" viewBox="0 0 97 20" width="97" height="20"><path d="M4 1H93Q96 1 96 4V16Q96 19 93 19H4Q1 19 1 16V4Q1 1 4 1Z" fill="none" stroke="#47A248" stroke-width="2"/><line x1="36" y1="1" x2="36" y2="19" stroke="#47A248" stroke-width="2"/><g transform="translate(11, 3) scale(0.5833333)"><path d="M17.193 9.555c-1.264-5.58-4.252-7.414-4.573-8.115-.28-.394-.53-.954-.735-1.44-.036.495-.055.685-.523 1.184-.723.566-4.438 3.682-4.74 10.02-.282 5.912 4.27 9.435 4.888 9.884l.07.05A73.49 73.49 0 0111.91 24h.481c.114-1.032.284-2.056.51-3.07.417-.296.604-.463.85-.693a11.342 11.342 0 003.639-8.464c.01-.814-.103-1.662-.197-2.218zm-5.336 8.195s0-8.291.275-8.29c.213 0 .49 10.695.49 10.695-.381-.045-.765-1.76-.765-2.405z" fill="#000000"/></g><text x="66" y="13" font-family="Verdana,Arial,sans-serif" font-size="10" fill="#47A248" font-weight="600" text-anchor="middle">MongoDB</text></svg>