<svg xmlns="http://www.w3.org/2000/svg" width="300" height="50" viewBox="0 0 300 50">
  <rect x="61" y="2.8" width="3" height="22.2" fill="#cyan"/>
  <rect x="66" y="8.3" width="3" height="16.7" fill="#cyan"/>
  <rect x="71" y="16.7" width="3" height="8.3" fill="#cyan"/>
  <rect x="76" y="25.0" width="3" height="2.8" fill="#magenta"/>
  <rect x="81" y="25.0" width="3" height="13.9" fill="#magenta"/>
  <rect x="86" y="25.0" width="3" height="22.2" fill="#magenta"/>
  <rect x="91" y="25.0" width="3" height="16.7" fill="#magenta"/>
  <rect x="96" y="25.0" width="3" height="5.6" fill="#magenta"/>
  <rect x="101" y="19.4" width="3" height="5.6" fill="#cyan"/>
  <rect x="106" y="8.3" width="3" height="16.7" fill="#cyan"/>
  <rect x="111" y="0.0" width="3" height="25.0" fill="#cyan"/>
  <rect x="116" y="5.6" width="3" height="19.4" fill="#cyan"/>
  <rect x="121" y="13.9" width="3" height="11.1" fill="#cyan"/>
  <rect x="126" y="22.2" width="3" height="2.8" fill="#cyan"/>
  <rect x="131" y="25.0" width="3" height="8.3" fill="#magenta"/>
  <rect x="136" y="25.0" width="3" height="19.4" fill="#magenta"/>
  <rect x="141" y="25.0" width="3" height="25.0" fill="#magenta"/>
  <rect x="146" y="25.0" width="3" height="16.7" fill="#magenta"/>
  <rect x="151" y="25.0" width="3" height="5.6" fill="#magenta"/>
  <rect x="156" y="22.2" width="3" height="2.8" fill="#cyan"/>
  <rect x="161" y="13.9" width="3" height="11.1" fill="#cyan"/>
  <rect x="166" y="5.6" width="3" height="19.4" fill="#cyan"/>
  <rect x="171" y="11.1" width="3" height="13.9" fill="#cyan"/>
  <rect x="176" y="19.4" width="3" height="5.6" fill="#cyan"/>
  <rect x="181" y="25.0" width="3" height="5.6" fill="#magenta"/>
  <rect x="186" y="25.0" width="3" height="13.9" fill="#magenta"/>
  <rect x="191" y="25.0" width="3" height="22.2" fill="#magenta"/>
  <rect x="196" y="25.0" width="3" height="13.9" fill="#magenta"/>
  <rect x="201" y="25.0" width="3" height="2.8" fill="#magenta"/>
  <rect x="206" y="16.7" width="3" height="8.3" fill="#cyan"/>
  <rect x="211" y="8.3" width="3" height="16.7" fill="#cyan"/>
  <rect x="216" y="2.8" width="3" height="22.2" fill="#cyan"/>
  <rect x="221" y="11.1" width="3" height="13.9" fill="#cyan"/>
  <rect x="226" y="19.4" width="3" height="5.6" fill="#cyan"/>
  <rect x="231" y="25.0" width="3" height="2.8" fill="#magenta"/>
  <rect x="236" y="25.0" width="3" height="11.1" fill="#magenta"/>
</svg>