<svg xmlns="http://www.w3.org/2000/svg" width="300" height="50" viewBox="0 0 300 50">
  <rect x="61" y="22.5" width="3" height="2.5" fill="#neon"/>
  <rect x="66" y="17.5" width="3" height="7.5" fill="#neon"/>
  <rect x="71" y="12.5" width="3" height="12.5" fill="#neon"/>
  <rect x="76" y="7.5" width="3" height="17.5" fill="#neon"/>
  <rect x="81" y="2.5" width="3" height="22.5" fill="#neon"/>
  <rect x="86" y="7.5" width="3" height="17.5" fill="#neon"/>
  <rect x="91" y="12.5" width="3" height="12.5" fill="#neon"/>
  <rect x="96" y="17.5" width="3" height="7.5" fill="#neon"/>
  <rect x="101" y="22.5" width="3" height="2.5" fill="#neon"/>
  <rect x="106" y="25.0" width="3" height="2.5" fill="#neon"/>
  <rect x="111" y="25.0" width="3" height="7.5" fill="#neon"/>
  <rect x="116" y="25.0" width="3" height="12.5" fill="#neon"/>
  <rect x="121" y="25.0" width="3" height="17.5" fill="#neon"/>
  <rect x="126" y="25.0" width="3" height="22.5" fill="#neon"/>
  <rect x="131" y="25.0" width="3" height="17.5" fill="#neon"/>
  <rect x="136" y="25.0" width="3" height="12.5" fill="#neon"/>
  <rect x="141" y="25.0" width="3" height="7.5" fill="#neon"/>
  <rect x="146" y="25.0" width="3" height="2.5" fill="#neon"/>
  <rect x="151" y="20.0" width="3" height="5.0" fill="#neon"/>
  <rect x="156" y="15.0" width="3" height="10.0" fill="#neon"/>
  <rect x="161" y="10.0" width="3" height="15.0" fill="#neon"/>
  <rect x="166" y="5.0" width="3" height="20.0" fill="#neon"/>
  <rect x="171" y="0.0" width="3" height="25.0" fill="#neon"/>
  <rect x="176" y="5.0" width="3" height="20.0" fill="#neon"/>
  <rect x="181" y="10.0" width="3" height="15.0" fill="#neon"/>
  <rect x="186" y="15.0" width="3" height="10.0" fill="#neon"/>
  <rect x="191" y="20.0" width="3" height="5.0" fill="#neon"/>
  <rect x="196" y="25.0" width="3" height="5.0" fill="#neon"/>
  <rect x="201" y="25.0" width="3" height="10.0" fill="#neon"/>
  <rect x="206" y="25.0" width="3" height="15.0" fill="#neon"/>
  <rect x="211" y="25.0" width="3" height="20.0" fill="#neon"/>
  <rect x="216" y="25.0" width="3" height="25.0" fill="#neon"/>
  <rect x="221" y="25.0" width="3" height="20.0" fill="#neon"/>
  <rect x="226" y="25.0" width="3" height="15.0" fill="#neon"/>
  <rect x="231" y="25.0" width="3" height="10.0" fill="#neon"/>
  <rect x="236" y="25.0" width="3" height="5.0" fill="#neon"/>
</svg>