<svg xmlns="http://www.w3.org/2000/svg" width="200" height="32" viewBox="0 0 200 32">
  <rect x="64" y="12.4" width="2" height="3.6" fill="#neon"/>
  <rect x="67" y="7.1" width="2" height="8.9" fill="#neon"/>
  <rect x="70" y="1.8" width="2" height="14.2" fill="#neon"/>
  <rect x="73" y="5.3" width="2" height="10.7" fill="#neon"/>
  <rect x="76" y="10.7" width="2" height="5.3" fill="#neon"/>
  <rect x="79" y="16.0" width="2" height="3.6" fill="#neon"/>
  <rect x="82" y="16.0" width="2" height="10.7" fill="#neon"/>
  <rect x="85" y="16.0" width="2" height="16.0" fill="#neon"/>
  <rect x="88" y="16.0" width="2" height="8.9" fill="#neon"/>
  <rect x="91" y="16.0" width="2" height="3.6" fill="#neon"/>
  <rect x="94" y="14.2" width="2" height="1.8" fill="#neon"/>
  <rect x="97" y="8.9" width="2" height="7.1" fill="#neon"/>
  <rect x="100" y="3.6" width="2" height="12.4" fill="#neon"/>
  <rect x="103" y="7.1" width="2" height="8.9" fill="#neon"/>
  <rect x="106" y="12.4" width="2" height="3.6" fill="#neon"/>
  <rect x="109" y="16.0" width="2" height="1.8" fill="#neon"/>
  <rect x="112" y="16.0" width="2" height="7.1" fill="#neon"/>
  <rect x="115" y="16.0" width="2" height="12.4" fill="#neon"/>
  <rect x="118" y="16.0" width="2" height="7.1" fill="#neon"/>
  <rect x="121" y="16.0" width="2" height="1.8" fill="#neon"/>
  <rect x="124" y="12.4" width="2" height="3.6" fill="#neon"/>
  <rect x="127" y="7.1" width="2" height="8.9" fill="#neon"/>
  <rect x="130" y="1.8" width="2" height="14.2" fill="#neon"/>
  <rect x="133" y="7.1" width="2" height="8.9" fill="#neon"/>
</svg>