<svg xmlns="http://www.w3.org/2000/svg" width="94" height="20" viewBox="0 0 94 20">
<path d="M0 0H36L36 0V20L36 20H0L0 20V0L0 0Z" fill="#1a1a1a"/>
<path d="M36 0H88Q94 0 94 6V14Q94 20 88 20H36L36 20V0L36 0Z" fill="#2a2a2a"/>
<g transform="translate(11, 3) scale(0.5833333)">
<path fill="#FFFFFF" d="M11.998 24c-.321 0-.641-.084-.922-.247L8.14 22.016c-.438-.245-.224-.332-.08-.383.639-.222.768-.273 1.449-.659.072-.04.166-.025.239.018l2.256 1.339c.082.045.198.045.275 0l8.795-5.076c.082-.047.134-.141.134-.238V6.921c0-.099-.053-.194-.137-.242l-8.791-5.072c-.081-.047-.189-.047-.271 0L3.22 6.68c-.087.049-.14.145-.14.243v10.095c0 .096.053.189.139.236l2.409 1.392c1.307.654 2.108-.116 2.108-.891V7.787c0-.142.114-.253.256-.253h1.115c.139 0 .255.111.255.253v9.968c0 1.745-.951 2.745-2.604 2.745-.508 0-.909 0-2.026-.551L2.28 18.675c-.57-.329-.922-.943-.922-1.604V6.976c0-.66.352-1.273.922-1.602L11.076.297c.558-.319 1.3-.319 1.848 0l8.794 5.077c.57.329.924.942.924 1.602v10.095c0 .66-.354 1.273-.924 1.604l-8.794 5.078c-.28.163-.6.247-.926.247zm2.72-6.969c-3.857 0-4.664-1.772-4.664-3.26 0-.141.113-.253.255-.253h1.137c.127 0 .233.092.253.216.172 1.163.686 1.75 3.019 1.75 1.858 0 2.649-.421 2.649-1.408 0-.569-.225-0.99-3.11-1.275-2.411-.239-3.903-.771-3.903-2.701 0-1.779 1.5-2.839 4.015-2.839 2.823 0 4.222.978 4.398 3.082a.256.256 0 01-.253.28h-1.142a.252.252 0 01-.246-.205c-.273-1.217-.937-1.607-2.757-1.607-2.03 0-2.267.708-2.267 1.237 0 .643.279.831 3.013 1.194 2.709.36 3.997.869 3.997 2.766 0 1.92-1.6 3.023-4.394 3.023z"/>
</g>
<text x="65" y="13" text-anchor="middle" fill="#FFFFFF" font-family="Verdana,Arial,sans-serif" font-size="10" font-weight="600">nodejs</text>
</svg>