<svg xmlns="http://www.w3.org/2000/svg" width="200" height="40" viewBox="0 0 200 40">
  <rect x="68" y="0.0" width="3" height="20.0" fill="#cyan"/>
  <rect x="72" y="10.0" width="3" height="10.0" fill="#cyan"/>
  <rect x="76" y="19.0" width="3" height="1.0" fill="#cyan"/>
  <rect x="80" y="20.0" width="3" height="10.0" fill="#magenta"/>
  <rect x="84" y="20.0" width="3" height="20.0" fill="#magenta"/>
  <rect x="88" y="20.0" width="3" height="10.0" fill="#magenta"/>
  <rect x="92" y="19.0" width="3" height="1.0" fill="#cyan"/>
  <rect x="96" y="10.0" width="3" height="10.0" fill="#cyan"/>
  <rect x="100" y="0.0" width="3" height="20.0" fill="#cyan"/>
  <rect x="104" y="10.0" width="3" height="10.0" fill="#cyan"/>
  <rect x="108" y="19.0" width="3" height="1.0" fill="#cyan"/>
  <rect x="112" y="20.0" width="3" height="10.0" fill="#magenta"/>
  <rect x="116" y="20.0" width="3" height="20.0" fill="#magenta"/>
  <rect x="120" y="20.0" width="3" height="10.0" fill="#magenta"/>
  <rect x="124" y="19.0" width="3" height="1.0" fill="#cyan"/>
  <rect x="128" y="10.0" width="3" height="10.0" fill="#cyan"/>
</svg>