<svg xmlns="http://www.w3.org/2000/svg" width="200" height="40" viewBox="0 0 200 40">
  <rect x="52" y="15.0" width="3" height="5.0" fill="#22C55E"/>
  <rect x="56" y="10.0" width="3" height="10.0" fill="#22C55E"/>
  <rect x="60" y="5.0" width="3" height="15.0" fill="#22C55E"/>
  <rect x="64" y="0.0" width="3" height="20.0" fill="#22C55E"/>
  <rect x="68" y="7.5" width="3" height="12.5" fill="#22C55E"/>
  <rect x="72" y="12.5" width="3" height="7.5" fill="#22C55E"/>
  <rect x="76" y="20.0" width="3" height="2.5" fill="#EF4444"/>
  <rect x="80" y="20.0" width="3" height="10.0" fill="#EF4444"/>
  <rect x="84" y="20.0" width="3" height="17.5" fill="#EF4444"/>
  <rect x="88" y="20.0" width="3" height="12.5" fill="#EF4444"/>
  <rect x="92" y="20.0" width="3" height="5.0" fill="#EF4444"/>
  <rect x="96" y="17.5" width="3" height="2.5" fill="#22C55E"/>
  <rect x="100" y="12.5" width="3" height="7.5" fill="#22C55E"/>
  <rect x="104" y="7.5" width="3" height="12.5" fill="#22C55E"/>
  <rect x="108" y="2.5" width="3" height="17.5" fill="#22C55E"/>
  <rect x="112" y="10.0" width="3" height="10.0" fill="#22C55E"/>
  <rect x="116" y="15.0" width="3" height="5.0" fill="#22C55E"/>
  <rect x="120" y="20.0" width="3" height="2.5" fill="#EF4444"/>
  <rect x="124" y="20.0" width="3" height="7.5" fill="#EF4444"/>
  <rect x="128" y="20.0" width="3" height="15.0" fill="#EF4444"/>
  <rect x="132" y="20.0" width="3" height="10.0" fill="#EF4444"/>
  <rect x="136" y="20.0" width="3" height="5.0" fill="#EF4444"/>
  <rect x="140" y="17.5" width="3" height="2.5" fill="#22C55E"/>
  <rect x="144" y="12.5" width="3" height="7.5" fill="#22C55E"/>
</svg>