<svg xmlns="http://www.w3.org/2000/svg" width="200" height="40" viewBox="0 0 200 40">
  <rect x="64" y="17.8" width="3" height="2.2" fill="#neon"/>
  <rect x="68" y="13.3" width="3" height="6.7" fill="#neon"/>
  <rect x="72" y="8.9" width="3" height="11.1" fill="#neon"/>
  <rect x="76" y="4.4" width="3" height="15.6" fill="#neon"/>
  <rect x="80" y="0.0" width="3" height="20.0" fill="#neon"/>
  <rect x="84" y="4.4" width="3" height="15.6" fill="#neon"/>
  <rect x="88" y="8.9" width="3" height="11.1" fill="#neon"/>
  <rect x="92" y="13.3" width="3" height="6.7" fill="#neon"/>
  <rect x="96" y="17.8" width="3" height="2.2" fill="#neon"/>
  <rect x="100" y="20.0" width="3" height="2.2" fill="#neon"/>
  <rect x="104" y="20.0" width="3" height="6.7" fill="#neon"/>
  <rect x="108" y="20.0" width="3" height="11.1" fill="#neon"/>
  <rect x="112" y="20.0" width="3" height="15.6" fill="#neon"/>
  <rect x="116" y="20.0" width="3" height="20.0" fill="#neon"/>
  <rect x="120" y="20.0" width="3" height="15.6" fill="#neon"/>
  <rect x="124" y="20.0" width="3" height="11.1" fill="#neon"/>
  <rect x="128" y="20.0" width="3" height="6.7" fill="#neon"/>
  <rect x="132" y="20.0" width="3" height="2.2" fill="#neon"/>
</svg>