<svg xmlns="http://www.w3.org/2000/svg" width="200" height="40" viewBox="0 0 200 40">
  <rect x="58" y="15.0" width="2" height="5.0" fill="#22C55E"/>
  <rect x="61" y="10.0" width="2" height="10.0" fill="#22C55E"/>
  <rect x="64" y="5.0" width="2" height="15.0" fill="#22C55E"/>
  <rect x="67" y="0.0" width="2" height="20.0" fill="#22C55E"/>
  <rect x="70" y="5.0" width="2" height="15.0" fill="#22C55E"/>
  <rect x="73" y="10.0" width="2" height="10.0" fill="#22C55E"/>
  <rect x="76" y="15.0" width="2" height="5.0" fill="#22C55E"/>
  <rect x="79" y="20.0" width="2" height="5.0" fill="#EF4444"/>
  <rect x="82" y="20.0" width="2" height="10.0" fill="#EF4444"/>
  <rect x="85" y="20.0" width="2" height="15.0" fill="#EF4444"/>
  <rect x="88" y="20.0" width="2" height="20.0" fill="#EF4444"/>
  <rect x="91" y="20.0" width="2" height="15.0" fill="#EF4444"/>
  <rect x="94" y="20.0" width="2" height="10.0" fill="#EF4444"/>
  <rect x="97" y="20.0" width="2" height="5.0" fill="#EF4444"/>
  <rect x="100" y="15.0" width="2" height="5.0" fill="#22C55E"/>
  <rect x="103" y="10.0" width="2" height="10.0" fill="#22C55E"/>
  <rect x="106" y="5.0" width="2" height="15.0" fill="#22C55E"/>
  <rect x="109" y="0.0" width="2" height="20.0" fill="#22C55E"/>
  <rect x="112" y="5.0" width="2" height="15.0" fill="#22C55E"/>
  <rect x="115" y="10.0" width="2" height="10.0" fill="#22C55E"/>
  <rect x="118" y="15.0" width="2" height="5.0" fill="#22C55E"/>
  <rect x="121" y="20.0" width="2" height="5.0" fill="#EF4444"/>
  <rect x="124" y="20.0" width="2" height="10.0" fill="#EF4444"/>
  <rect x="127" y="20.0" width="2" height="15.0" fill="#EF4444"/>
  <rect x="130" y="20.0" width="2" height="20.0" fill="#EF4444"/>
  <rect x="133" y="20.0" width="2" height="15.0" fill="#EF4444"/>
  <rect x="136" y="20.0" width="2" height="10.0" fill="#EF4444"/>
  <rect x="139" y="20.0" width="2" height="5.0" fill="#EF4444"/>
</svg>